<svg width="52" height="64" viewBox="0 0 52 64" fill="none" xmlns="http://www.w3.org/2000/svg">
<path d="M43.095 34.1627C43.016 26.2232 49.5695 22.4152 49.8625 22.2228C46.1794 16.8376 40.4413 16.0987 38.3991 16.0146C33.5196 15.519 28.8734 18.8887 26.398 18.8887C23.9277 18.8887 20.1032 16.0872 16.0569 16.1586C10.7342 16.2376 5.82801 19.2544 3.08891 24.0191C-2.43897 33.6085 1.67477 47.82 7.06124 55.6029C9.69459 59.407 12.835 63.6877 16.9551 63.5309C20.9262 63.3742 22.4244 60.9626 27.2248 60.9626C32.0252 60.9626 33.3731 63.5309 37.5735 63.4507C41.844 63.373 44.5512 59.5739 47.1629 55.7545C50.1861 51.335 51.4308 47.0556 51.5047 46.839C51.4117 46.7957 43.1804 43.6425 43.095 34.1627Z" fill="white" fill-opacity="0.87"/>
<path d="M35.2017 10.8627C37.3866 8.21027 38.867 4.52459 38.4644 0.855469C35.3112 0.982869 31.4943 2.9512 29.2304 5.60112C27.2022 7.95292 25.4288 11.6972 25.904 15.3001C29.4215 15.5727 33.0091 13.5101 35.2017 10.8627Z" fill="white" fill-opacity="0.87"/>
</svg>
