<svg width="16" height="18" viewBox="0 0 16 18" fill="none" xmlns="http://www.w3.org/2000/svg">
<path d="M15.1584 0.296875L14.0327 15.2457C13.9252 16.6422 12.7608 17.7422 11.4245 17.7422H4.57954C3.24321 17.7422 2.07876 16.6422 1.97134 15.2457L0.841257 0.296875H15.1584ZM10.8315 15.8C10.8186 16.1051 11.0506 16.3457 11.3471 16.3457C11.6436 16.3457 11.8928 16.1008 11.91 15.8L12.5374 3.05547C12.5588 2.64297 12.2924 2.30781 11.9444 2.30781C11.5963 2.30781 11.3041 2.64297 11.287 3.05547L10.8315 15.8ZM7.46274 15.8C7.46274 16.1051 7.70766 16.3457 7.99985 16.3457C8.29204 16.3457 8.53696 16.1008 8.53696 15.8L8.6229 3.05547C8.6272 2.64297 8.3479 2.30781 7.99985 2.30781C7.6518 2.30781 7.37251 2.64297 7.3768 3.05547L7.46274 15.8ZM4.09399 15.8C4.10688 16.1051 4.3604 16.3457 4.65688 16.3457C4.95337 16.3457 5.1811 16.1008 5.17251 15.8L4.71704 3.05547C4.70415 2.64297 4.40766 2.30781 4.05962 2.30781C3.71157 2.30781 3.44516 2.64297 3.46665 3.05547L4.09399 15.8Z" fill="#F62B44"/>
</svg>
