<svg width="16" height="20" viewBox="0 0 16 20" fill="none" xmlns="http://www.w3.org/2000/svg">
<path d="M15.8942 5.45833C15.8442 5.34375 15.7831 5.23438 15.6998 5.14063L11.0442 0.364584C10.9386 0.255209 10.8109 0.177084 10.672 0.109376C10.5109 0.0312508 10.3331 9.03369e-07 10.1442 8.86856e-07L1.26087 1.1025e-07C0.571978 5.00252e-08 -0.000244189 0.552083 -0.000244249 1.24479L-0.000245776 18.7031C-0.000245837 19.401 0.571976 20 1.26087 20L14.7664 20C15.4553 20 15.9998 19.401 15.9998 18.7031L15.9998 5.98958C15.9998 5.80208 15.972 5.61979 15.8942 5.45833ZM2.66642 5.94792C2.66642 5.86979 2.76642 5.83854 2.85531 5.83854L6.78864 5.83854C6.87753 5.83854 6.9442 5.86979 6.9442 5.94792L6.9442 6.51042C6.9442 6.58333 6.88309 6.67188 6.78864 6.67188L2.85531 6.67188C2.76642 6.67188 2.66642 6.58333 2.66642 6.51042L2.66642 5.94792ZM2.66642 12.6146C2.66642 12.5365 2.76642 12.5052 2.85531 12.5052L9.6442 12.5052C9.73309 12.5052 9.77753 12.5365 9.77753 12.6146L9.77753 13.1771C9.77753 13.25 9.73864 13.3385 9.6442 13.3385L2.85531 13.3385C2.76642 13.3385 2.66642 13.25 2.66642 13.1771L2.66642 12.6146ZM11.5553 16.5104C11.5553 16.5833 11.5164 16.6719 11.422 16.6719L2.85531 16.6719C2.76642 16.6719 2.66642 16.5833 2.66642 16.5104L2.66642 15.9479C2.66642 15.8698 2.76642 15.8385 2.85531 15.8385L11.422 15.8385C11.5109 15.8385 11.5553 15.8698 11.5553 15.9479L11.5553 16.5104ZM13.3331 9.84375C13.3331 9.91667 13.2942 10.0052 13.1998 10.0052L2.85531 10.0052C2.76642 10.0052 2.66642 9.91667 2.66642 9.84375L2.66642 9.28125C2.66642 9.20313 2.76642 9.17188 2.85531 9.17188L13.1998 9.17188C13.2886 9.17188 13.3331 9.20313 13.3331 9.28125L13.3331 9.84375ZM10.7275 5.89063C10.4164 5.89063 10.1109 5.61979 10.1109 5.30208L10.1109 1.86458L14.0664 5.89063L10.7275 5.89063Z" fill="#F62B44"/>
</svg>
