<svg width="49" height="38" viewBox="0 0 49 38" fill="none" xmlns="http://www.w3.org/2000/svg">
<path d="M48.2824 10.2715L42.5759 13.4101L36.8694 18.8313V37.4345H44.8585C46.7497 37.4345 48.2824 35.9018 48.2824 34.0106V10.2715Z" fill="#4CAF50"/>
<path d="M0.347656 10.2715L4.47233 12.2231L11.7607 18.8313V37.4345H3.77157C1.88043 37.4345 0.347656 35.9018 0.347656 34.0106V10.2715Z" fill="#1E88E5"/>
<path d="M36.8694 4.56543L24.315 13.9812L11.7607 4.56543L10.6194 11.185L11.7607 18.8317L24.315 28.2475L36.8694 18.8317L38.0107 11.185L36.8694 4.56543Z" fill="#E53935"/>
<path d="M0.347778 5.81841V10.2718L11.7608 18.8316V4.56526L8.19539 1.89347C7.34626 1.25662 6.31452 0.913086 5.2531 0.913086C2.54365 0.913086 0.347778 3.10896 0.347778 5.81841Z" fill="#C62828"/>
<path d="M48.2824 5.81841V10.2718L36.8694 18.8316V4.56526L40.4348 1.89347C41.284 1.25662 42.3157 0.913086 43.3771 0.913086C46.0866 0.913086 48.2824 3.10896 48.2824 5.81841Z" fill="#FBC02D"/>
</svg>
