<svg width="20" height="20" viewBox="0 0 20 20" fill="none" xmlns="http://www.w3.org/2000/svg">
<path d="M19.9944 19.6948V19.9999L14.1799 20C14.1799 19.9013 14.1801 19.8089 14.1799 19.7163C14.176 18.4127 14.2121 17.1075 14.1592 15.806C14.0685 13.5691 12.1521 11.7833 9.9493 11.8236C7.71514 11.8643 5.90551 13.6374 5.83097 15.9066C5.79004 17.1521 5.82001 18.4001 5.81803 19.647C5.8179 19.7425 5.81803 19.838 5.81803 19.9445H0.00350835V19.6889C0.00350835 15.7295 0.00561266 11.7701 0 7.81068C-0.000508698 7.4356 0.136903 7.16076 0.431812 6.94546C3.56856 4.65498 6.70429 2.36308 9.83702 0.066898C9.96467 -0.0266597 10.0442 -0.0193385 10.1674 0.0716924C13.2798 2.36891 16.394 4.66373 19.5124 6.95259C19.8528 7.20242 20.0011 7.50674 20 7.93805C19.9904 11.8569 19.9944 15.7759 19.9944 19.6948Z" fill="#F62B44"/>
</svg>
